<svg width="512" height="512" viewBox="0 0 512 512" fill="none" xmlns="http://www.w3.org/2000/svg">
<g clip-path="url(#clip0_2_3)">
<path d="M255.658 395.5L120.158 160H391.158L255.658 395.5ZM255.658 375.447L373.867 170H137.449L255.658 375.447Z" fill="white"/>
<path d="M255.509 394.951L391.158 160L453.658 368.5L255.509 394.951ZM388.233 185.066L274.331 382.349L440.712 360.139L388.233 185.066Z" fill="white"/>
<path d="M120.158 160L255.826 395.037L57.658 368.5L120.158 160ZM237 382.427L123.082 185.07L70.6023 360.145L237 382.427Z" fill="white"/>
<path d="M253.658 491.5V394.588L453.658 368.5L253.658 491.5ZM263.658 403.368V473.61L408.619 384.459L263.658 403.368Z" fill="white"/>
<path d="M253.658 491.5V394.588L57.6581 368.5L253.658 491.5ZM243.658 403.345V473.418L101.938 384.481L243.658 403.345Z" fill="white"/>
<path d="M391.158 160H261.658V150H368.175L261.341 35.3291L144.608 150H261.658V160H120.158L261.658 21L391.158 160Z" fill="white"/>
<path d="M453.658 138.5L391.158 160L261.658 21L453.658 138.5ZM394.047 148.431L430.332 135.948L318.862 67.7314L394.047 148.431Z" fill="white"/>
<path d="M57.6581 138L120.158 160L261.658 21L57.6581 138ZM117.599 148.497L81.5693 135.814L199.168 68.3682L117.599 148.497Z" fill="white"/>
<path d="M453.658 368.5L391.158 160L453.658 138.5V368.5ZM403.495 166.33L443.658 300.312V152.515L403.495 166.33Z" fill="white"/>
<path d="M57.6581 368.5L120.158 160L57.6581 138V368.5ZM107.841 166.265L67.6581 300.312V152.121L107.841 166.265Z" fill="white"/>
<path d="M196.507 256V243.864L221.973 221.568C223.882 219.841 225.507 218.261 226.848 216.83C228.189 215.375 229.212 213.92 229.916 212.466C230.621 210.989 230.973 209.386 230.973 207.659C230.973 205.727 230.553 204.08 229.712 202.716C228.871 201.33 227.712 200.261 226.234 199.511C224.757 198.761 223.064 198.386 221.155 198.386C219.223 198.386 217.53 198.784 216.075 199.58C214.621 200.352 213.484 201.477 212.666 202.955C211.871 204.432 211.473 206.227 211.473 208.341H195.484C195.484 203.591 196.553 199.489 198.689 196.034C200.825 192.58 203.825 189.92 207.689 188.057C211.575 186.17 216.087 185.227 221.223 185.227C226.518 185.227 231.121 186.114 235.03 187.886C238.939 189.659 241.962 192.136 244.098 195.318C246.257 198.477 247.337 202.148 247.337 206.33C247.337 208.989 246.803 211.625 245.734 214.239C244.666 216.852 242.746 219.739 239.973 222.898C237.223 226.057 233.314 229.841 228.246 234.25L219.893 241.955V242.398H248.189V256H196.507ZM286.601 257.705C280.51 257.705 275.26 256.261 270.851 253.375C266.442 250.466 263.044 246.295 260.658 240.864C258.271 235.409 257.089 228.852 257.112 221.193C257.135 213.534 258.328 207.034 260.692 201.693C263.078 196.33 266.464 192.25 270.851 189.455C275.26 186.636 280.51 185.227 286.601 185.227C292.692 185.227 297.942 186.636 302.351 189.455C306.783 192.25 310.192 196.33 312.578 201.693C314.964 207.057 316.146 213.557 316.124 221.193C316.124 228.875 314.93 235.443 312.544 240.898C310.158 246.352 306.76 250.523 302.351 253.409C297.964 256.273 292.714 257.705 286.601 257.705ZM286.601 243.898C290.237 243.898 293.18 242.045 295.43 238.341C297.68 234.614 298.794 228.898 298.771 221.193C298.771 216.148 298.26 211.989 297.237 208.716C296.214 205.42 294.794 202.966 292.976 201.352C291.158 199.739 289.033 198.932 286.601 198.932C282.987 198.932 280.067 200.761 277.839 204.42C275.612 208.057 274.487 213.648 274.464 221.193C274.442 226.307 274.93 230.545 275.93 233.909C276.953 237.273 278.385 239.784 280.226 241.443C282.067 243.08 284.192 243.898 286.601 243.898Z" fill="white"/>
</g>
<defs>
<clipPath id="clip0_2_3">
<rect width="512" height="512" fill="white"/>
</clipPath>
</defs>
</svg>
